# xmcd
#
# Track frame offsets:
#	150
#	15046
#	31280
#	45933
#	59163
#	78315
#	94879
#	110652
#	126189
#	140594
#	157606
#	174756
#
# Disc length: 2447 seconds
#
# Revision: 0
# Processed by: cddbd v1.5PL3 Copyright (c) Steve Scherf et al.
# Submitted via: audiograbber 1.82.01
#
DISCID=89098d0c
DTITLE=Big Bill Morganfield - Blues In The Blood
DYEAR=2003
DGENRE=Blues
TTITLE0=Boogie Child
TTITLE1=Evil
TTITLE2=Hoochie Coochie Girl
TTITLE3=Left Alone
TTITLE4=Trapped
TTITLE5=Whiskey
TTITLE6=Feel Like Dyin'
TTITLE7=Love You Right
TTITLE8=Anything Just For You
TTITLE9=Strong Love
TTITLE10=Time To Go
TTITLE11=Why Don't You Live So God Can Use You
EXTD=
EXTT0=
EXTT1=
EXTT2=
EXTT3=
EXTT4=
EXTT5=
EXTT6=
EXTT7=
EXTT8=
EXTT9=
EXTT10=
EXTT11=
PLAYORDER=
